<svg xmlns="http://www.w3.org/2000/svg" width="512" height="512" xml:space="preserve"><circle fill="#F05F67" cx="256" cy="256" r="256"/><path opacity=".1" d="M471.451 261.479c0-5.867-.249-11.675-.717-17.421l-88.429-79.603-236.16 202.285 106.624 106.624c2.22.068 4.446.115 6.683.115 117.083 0 211.999-94.916 211.999-212z"/><path fill="#68013E" d="M256 37.333c-120.766 0-218.667 97.9-218.667 218.667 0 120.766 97.901 218.667 218.667 218.667S474.667 376.766 474.667 256c0-120.767-97.901-218.667-218.667-218.667zm0 433.466C137.371 470.799 41.201 374.63 41.201 256S137.371 41.201 256 41.201c118.63 0 214.799 96.169 214.799 214.799S374.63 470.799 256 470.799z"/><circle fill="#A43E44" cx="259" cy="260" r="155.992"/><circle fill="#F2F2F2" cx="256" cy="256" r="155.992"/><circle fill="#D5D5D5" cx="256" cy="256" r="112.86"/><path opacity=".2" d="M283.899 184.25 294.063 209l-21.915 24.974-37.096-42.213-35.223 42.213 42.599 42.599-85.302 90.7 27.425 27.425c21.407 11.05 45.698 17.294 71.449 17.294 86.152 0 155.992-69.84 155.992-155.992 0-15.459-2.26-30.388-6.448-44.487l-71.867-70.017-49.778 42.754z"/><g><g fill="#888A8B"><path d="M336.467 365.766c3.52 4.028 9.639 4.441 13.668.922 4.028-3.52 4.441-9.638.923-13.667L223.604 207.116c-3.52-4.029-9.639-4.442-13.668-.922-4.028 3.519-4.441 9.639-.922 13.668l127.453 145.904z"/><path d="M336.758 370.429c4.037 4.621 11.056 5.096 15.678 1.059l2.146-1.874c4.621-4.038 5.096-11.057 1.059-15.678l-57.729-66.087c-4.035-4.621-11.057-5.095-15.678-1.059l-2.146 1.874c-4.621 4.038-5.096 11.058-1.058 15.679l57.728 66.086zM172.694 209.031c18.477 21.152 33.456 38.3 55.985 18.62s7.55-36.828-10.927-57.98c-18.477-21.152-43.543-29.489-55.986-18.62-12.442 10.869-7.549 36.827 10.928 57.98z"/></g><path fill="#E6E6E6" d="M335.687 363.425c3.521 4.029 9.64 4.443 13.669.924 4.028-3.521 4.44-9.64.922-13.669L222.824 204.777c-3.52-4.029-9.639-4.442-13.668-.923-4.028 3.519-4.442 9.639-.922 13.668l127.453 145.903z"/><path fill="gray" d="M335.978 368.089c4.037 4.622 11.057 5.096 15.678 1.059l2.146-1.875c4.621-4.036 5.097-11.056 1.059-15.678l-57.729-66.086c-4.036-4.621-11.056-5.095-15.677-1.058l-2.146 1.874c-4.621 4.037-5.097 11.058-1.06 15.679l57.729 66.085z"/><path fill="#E6E6E6" d="M171.915 206.691c18.477 21.152 33.456 38.3 55.985 18.62 22.53-19.68 7.551-36.828-10.927-57.98-18.477-21.152-43.542-29.489-55.985-18.62-12.444 10.87-7.551 36.828 10.927 57.98z"/><path fill="#7A7C7D" d="m272.147 261.24-12.966-14.843-11.224 14.371 10.607 14.371z"/><g fill="#97999A"><path d="m362.652 166.907-2.598-2.27-44.765 51.246-8.162-7.13 44.766-51.246-9.274-8.101-44.766 51.246-8.164-7.131 44.767-51.245-2.599-2.269a5.909 5.909 0 0 0-8.339.563l-46.022 52.684a5.914 5.914 0 0 0 .563 8.341l30.794 26.9a5.912 5.912 0 0 0 8.34-.563l46.022-52.684a5.911 5.911 0 0 0-.563-8.341z"/><path d="M178.62 364.206c-3.519 4.028-9.639 4.441-13.667.922-4.028-3.52-4.441-9.639-.922-13.668l127.453-145.903c3.52-4.029 9.639-4.442 13.668-.923 4.028 3.52 4.441 9.639.922 13.668L178.62 364.206z"/><path d="M175.729 368.868c-4.037 4.622-11.056 5.097-15.678 1.06l-2.146-1.875c-4.622-4.037-5.096-11.056-1.059-15.678l57.729-66.086c4.037-4.621 11.057-5.096 15.677-1.059l2.147 1.874c4.621 4.038 5.095 11.058 1.058 15.679l-57.728 66.085z"/></g><g><path fill="#E6E6E6" d="m361.872 166.127-2.598-2.27-44.765 51.246-8.162-7.129 44.766-51.246-9.274-8.101-44.767 51.246-8.162-7.131 44.766-51.245-2.598-2.269a5.911 5.911 0 0 0-8.341.563l-46.021 52.684a5.912 5.912 0 0 0 .564 8.34l30.793 26.9a5.913 5.913 0 0 0 8.341-.563l46.021-52.685a5.908 5.908 0 0 0-.563-8.34z"/><path fill="#E6E6E6" d="M177.84 363.425c-3.519 4.029-9.639 4.443-13.667.924-4.029-3.521-4.441-9.64-.922-13.669l127.453-145.903c3.521-4.029 9.639-4.442 13.668-.923s4.441 9.639.922 13.668L177.84 363.425z"/><path fill="gray" d="M174.95 368.089c-4.037 4.622-11.056 5.096-15.678 1.059l-2.146-1.875c-4.622-4.036-5.096-11.056-1.059-15.678l57.729-66.086c4.037-4.621 11.056-5.095 15.677-1.058l2.147 1.874c4.621 4.037 5.095 11.058 1.058 15.679l-57.728 66.085z"/></g></g></svg>